<svg xmlns="http://www.w3.org/2000/svg" viewBox="0 0 512 512"><defs><style>.cls-1{fill:#5ac4cf;stroke:#fff;stroke-miterlimit:10;stroke-width:10px;}.cls-2{fill:#fff;}</style></defs><title>xx6</title><g id="Layer_13" data-name="Layer 13"><circle class="cls-1" cx="256" cy="256" r="141.11"/><circle class="cls-2" cx="254.62" cy="223.02" r="31.18"/><circle class="cls-2" cx="192.87" cy="227.91" r="17.58"/><path class="cls-2" d="M214.11,258.48s-21.86,10.32-21.24,33.71c0,0-29.66,9.63-29.66-16.85-.69-17,9.52-21.14,15.13-21.14h28.21S211.59,254.2,214.11,258.48Z"/><circle class="cls-2" cx="319.13" cy="227.91" r="17.58"/><path class="cls-2" d="M297.89,258.48s21.86,10.32,21.24,33.71c0,0,29.66,9.63,29.66-16.85.69-17-9.52-21.14-15.13-21.14H305.45S300.41,254.2,297.89,258.48Z"/><path class="cls-2" d="M308.82,291c0-14.9-24.31-31.64-34.63-26.59a44.08,44.08,0,0,1-39.13,0c-10.32-5.05-34.63,11.69-34.63,26.59s-1.37,29.13,13.76,29.13h80.87C310.19,320.17,308.82,306,308.82,291Z"/></g></svg>