<svg xmlns="http://www.w3.org/2000/svg" viewBox="0 0 512 512"><defs><style>.cls-1{fill:#5ac4cf;stroke-width:10px;}.cls-1,.cls-3{stroke:#fff;stroke-miterlimit:10;}.cls-2{fill:#fff;}.cls-3{fill:none;stroke-width:15px;}</style></defs><title>xx4</title><g id="Layer_13" data-name="Layer 13"><circle class="cls-1" cx="256" cy="256" r="141.11"/><path class="cls-2" d="M273.31,295.4a19.85,19.85,0,0,1-35.23,0H167.64v12.07a15.14,15.14,0,0,0,15.14,15.14H329.22a15.14,15.14,0,0,0,15.14-15.14V295.4Z"/><path class="cls-3" d="M198.79,189.39H313.21a5.77,5.77,0,0,1,5.77,5.77v82.59a0,0,0,0,1,0,0H193a0,0,0,0,1,0,0V195.16A5.77,5.77,0,0,1,198.79,189.39Z"/><polyline class="cls-3" points="242.07 217.44 228.07 231.81 242.07 248.62"/><polyline class="cls-3" points="269.93 217.44 283.93 231.81 269.93 248.62"/></g></svg>