<svg xmlns="http://www.w3.org/2000/svg" viewBox="0 0 512 512"><defs><style>.cls-1,.cls-3{fill:#fff;stroke:#5ac4cf;stroke-miterlimit:10;stroke-width:10px;}.cls-2{fill:#5ac4cf;}.cls-3{stroke-linecap:round;}</style></defs><title>Artboard 9</title><g id="Multi_Administrasi" data-name="Multi Administrasi"><rect class="cls-1" x="140.62" y="126.39" width="193.61" height="258.12"/><rect class="cls-1" x="165.36" y="151.14" width="193.61" height="258.12"/><path class="cls-2" d="M215.76,159V143.55H205.67a40.6,40.6,0,0,0-6.27-15.31l7.17-7.18-10.94-10.94-7.13,7.14a40.84,40.84,0,0,0-15.27-6.39V100.73H157.77v10.08a40.94,40.94,0,0,0-15.31,6.28l-7.18-7.17-10.94,10.94,7.14,7.13a41.08,41.08,0,0,0-6.39,15.27H115v15.46H125A41,41,0,0,0,131.32,174l-7.18,7.17,10.94,10.94,7.13-7.14a40.84,40.84,0,0,0,15.27,6.39v10.14H173V191.46a41,41,0,0,0,15.31-6.28l7.17,7.17,10.94-10.94-7.14-7.13A40.84,40.84,0,0,0,205.62,159Zm-50.4-40.35a32.38,32.38,0,0,1,32.46,32.48,33,33,0,0,1-.86,7.51h0a32.12,32.12,0,0,1-4.09,9.74,32.64,32.64,0,0,1-10.48,10.4,32.15,32.15,0,0,1-9.78,4,33.13,33.13,0,0,1-14.76-.06,32.57,32.57,0,0,1-20.14-14.58,32.15,32.15,0,0,1-4-9.78,32.66,32.66,0,0,1,.07-14.76,32.12,32.12,0,0,1,4.09-9.74,32.64,32.64,0,0,1,10.48-10.4,32.26,32.26,0,0,1,17-4.82Z"/><line class="cls-3" x1="187.99" y1="208.01" x2="244.46" y2="208.01"/><line class="cls-3" x1="187.99" y1="242.39" x2="244.46" y2="242.39"/><line class="cls-3" x1="187.99" y1="276.77" x2="272.96" y2="276.77"/><line class="cls-3" x1="187.99" y1="311.16" x2="302.77" y2="311.16"/><line class="cls-3" x1="187.99" y1="345.54" x2="257.65" y2="345.54"/><line class="cls-3" x1="187.99" y1="379.92" x2="302.77" y2="379.92"/><circle class="cls-1" cx="358.97" cy="373.19" r="38.08"/><polyline class="cls-3" points="335.26 378.45 351.58 388.58 382.67 357.8"/></g></svg>