<svg xmlns="http://www.w3.org/2000/svg" viewBox="0 0 512 512"><defs><style>.cls-1,.cls-2{fill:#fff;stroke:#5ac4cf;}.cls-1,.cls-2,.cls-4{stroke-miterlimit:10;}.cls-1{stroke-width:6px;}.cls-2,.cls-4{stroke-linecap:round;}.cls-2{stroke-width:10px;}.cls-3,.cls-4{fill:#5ac4cf;}.cls-4{stroke:#fff;}</style></defs><title>Artboard 6</title><g id="Warning_Sign" data-name="Warning Sign"><rect class="cls-1" x="106.94" y="139.19" width="298.12" height="233.61" transform="translate(512 0) rotate(90)"/><line class="cls-2" x1="165.21" y1="159.13" x2="234.19" y2="159.13"/><line class="cls-2" x1="165.21" y1="194.48" x2="234.19" y2="194.48"/><line class="cls-2" x1="165.21" y1="229.83" x2="268.99" y2="229.83"/><line class="cls-2" x1="165.21" y1="265.18" x2="305.4" y2="265.18"/><line class="cls-2" x1="165.21" y1="300.53" x2="250.3" y2="300.53"/><line class="cls-2" x1="165.21" y1="382.06" x2="217.1" y2="382.06"/><line class="cls-2" x1="165.21" y1="335.88" x2="305.4" y2="335.88"/><path class="cls-3" d="M347.13,240c1.1,9.5,1.94,19,2.8,28.48l1.15,14.24L352,297c.27,4.74.88,9.49,1.33,14.23a78.76,78.76,0,0,1,.07,14.24,122.43,122.43,0,0,1-2.06,14.24,76.94,76.94,0,0,1-4.24,14.24.76.76,0,0,1-1,.4.75.75,0,0,1-.4-.4,76.23,76.23,0,0,1-4.25-14.24,124.57,124.57,0,0,1-2.05-14.24,77.86,77.86,0,0,1,.07-14.24c.44-4.74,1.05-9.49,1.33-14.23l.94-14.24,1.16-14.24c.85-9.49,1.69-19,2.8-28.48a.69.69,0,0,1,.78-.61A.7.7,0,0,1,347.13,240Z"/><circle class="cls-4" cx="346.43" cy="378.72" r="13.49"/></g></svg>