<svg xmlns="http://www.w3.org/2000/svg" viewBox="0 0 512 512"><defs><style>.cls-1,.cls-2,.cls-4{fill:#fff;}.cls-1,.cls-2,.cls-5,.cls-6{stroke:#5ac4cf;stroke-miterlimit:10;}.cls-1{stroke-width:10px;}.cls-2{stroke-width:8px;}.cls-3{fill:#5ac4cf;}.cls-5,.cls-6{fill:none;}.cls-5{stroke-width:5px;}.cls-6{stroke-width:4px;}</style></defs><title>Artboard 5</title><g id="Security_Level" data-name="Security Level"><polygon class="cls-1" points="353.49 126.27 281.92 126.27 256 81.37 230.08 126.27 158.51 126.27 131.15 95.92 131.15 126.27 131.15 320.81 256.01 430.63 380.86 320.81 380.86 126.27 380.86 95.92 353.49 126.27"/><polygon class="cls-2" points="158.51 308.43 158.51 153.63 353.49 153.63 353.49 308.43 256.01 394.18 158.51 308.43"/><polygon class="cls-3" points="326.12 244.58 326.12 296.05 297.49 321.23 256 357.73 256 244.58 326.12 244.58"/><rect class="cls-4" x="256" y="181" width="70.12" height="63.58"/><polygon class="cls-4" points="256 244.58 256 357.73 214.51 321.23 185.88 296.05 185.88 244.58 256 244.58"/><rect class="cls-3" x="185.88" y="181" width="70.12" height="63.58"/><polygon class="cls-5" points="256 181 326.12 181 326.12 244.58 326.12 296.05 297.49 321.23 256 357.73 214.51 321.23 185.88 296.05 185.88 244.58 185.88 181 256 181"/><polyline class="cls-6" points="185.88 244.58 256 244.58 326.12 244.58"/><polyline class="cls-6" points="256 181 256 244.58 256 357.73"/></g></svg>