<svg xmlns="http://www.w3.org/2000/svg" viewBox="0 0 512 512"><defs><style>.cls-1,.cls-2,.cls-4{fill:#fff;}.cls-1,.cls-2,.cls-5,.cls-6{stroke:#5ac4cf;stroke-miterlimit:10;}.cls-1{stroke-width:10px;}.cls-2,.cls-5{stroke-width:5px;}.cls-3{fill:#5ac4cf;}.cls-5,.cls-6{fill:none;}.cls-6{stroke-width:4px;}</style></defs><title>Artboard 10</title><g id="Integrated_System" data-name="Integrated System"><path class="cls-1" d="M417.43,281.22V231.69H385.12a130.52,130.52,0,0,0-20.11-49l23-23-35-35-22.85,22.85a130.59,130.59,0,0,0-48.89-20.47V94.57H231.69v32.31a130.52,130.52,0,0,0-49,20.11l-23-23-35,35,22.85,22.85a130.59,130.59,0,0,0-20.47,48.89H94.57v49.53h32.31a130.52,130.52,0,0,0,20.11,49l-23,23,35,35,22.85-22.85A130.59,130.59,0,0,0,230.78,385v32.48h49.53V385.12a130.52,130.52,0,0,0,49-20.11l23,23,35-35-22.85-22.85A130.59,130.59,0,0,0,385,281.22Zm-55.38,0a108,108,0,0,1-13.73,32.72,109.34,109.34,0,0,1-35.18,34.88,108.92,108.92,0,0,1-115.08-.5,109.34,109.34,0,0,1-34.88-35.18,108.92,108.92,0,0,1,.5-115.08,109.34,109.34,0,0,1,35.18-34.88,108.92,108.92,0,0,1,115.08.5,109.34,109.34,0,0,1,34.88,35.18,109.22,109.22,0,0,1,13.23,82.36Z"/><path class="cls-2" d="M365,256a108.42,108.42,0,1,1-2.72-24.31A108.6,108.6,0,0,1,365,256Z"/><polygon class="cls-3" points="317.9 246.54 317.9 291.98 292.63 314.2 256.01 346.42 256 346.42 256 346.41 256 246.54 317.9 246.54"/><rect class="cls-4" x="256" y="190.43" width="61.9" height="56.11"/><polygon class="cls-4" points="256 246.54 256 346.41 219.38 314.2 194.11 291.98 194.11 246.54 256 246.54"/><rect class="cls-3" x="194.11" y="190.43" width="61.89" height="56.11"/><polyline class="cls-5" points="256 346.41 219.38 314.2 194.11 291.98 194.11 246.54 194.11 190.43 256 190.43 317.9 190.43 317.9 246.54 317.9 291.98 292.63 314.2 256.01 346.42 256 346.42"/><polyline class="cls-6" points="194.11 246.54 256 246.54 317.9 246.54"/><polyline class="cls-6" points="256 190.43 256 246.54 256 346.41 256 346.42"/></g></svg>