<svg xmlns="http://www.w3.org/2000/svg" viewBox="0 0 512 512"><defs><style>.cls-1,.cls-2,.cls-3{fill:#5ac4cf;}.cls-1,.cls-3{stroke:#fff;stroke-miterlimit:10;stroke-width:10px;}.cls-3{stroke-linecap:round;}</style></defs><title>Artboard 8</title><g id="Report"><path class="cls-1" d="M328.66,409c-21.3-.07-42.59-.19-63.89-.2q-77.16,0-154.33.06c-3.9,0-5.18-.73-5.17-5q.2-138.25,0-276.52c0-3.6.81-5.09,4.62-4.71a86.2,86.2,0,0,0,10,.07c1.9,0,2.66.75,2.59,2.64-.09,2.4,0,4.82,0,7.23q0,128.82-.08,257.63c0,4,.86,5.15,5,5.14q98.07-.22,196.14-.12c7,0,5.77-.17,5.89,5.75.05,2.41.06,4.82.09,7.22Z"/><path class="cls-2" d="M396.1,106c12.67,9.15,13.53,14,5.17,27.42-1.38,2.23-2.48,2.49-4.71,1.15q-12-7.18-24.24-14c-1.95-1.08-2.44-2.14-1.59-4l-.05,0c2.3-2.74,3.8-6,5.57-9l0,0,3.76-3.18.19,0,4-1.32,7.56.58a5.63,5.63,0,0,0,3,1.58A1.28,1.28,0,0,0,396.1,106Z"/><path class="cls-1" d="M127,247.52q0-69.35-.08-138.67c0-3.5.82-4.51,4.41-4.51q107.51.15,215,0c4,0,5,1.21,4.86,5-.24,9.64-.13,19.29-.05,28.94a12.72,12.72,0,0,1-1.81,6.84c-10.17,17.46-20.21,35-30.39,52.46a21.2,21.2,0,0,0-3,9.85c-.5,9.36-1.15,18.71-1.8,28.06-.24,3.3.37,6.18,3.49,7.93s5.89.77,8.63-1.06q10.51-7,21.11-13.94c.93-.6,1.93-1.87,3.18-1,1,.65.52,2,.52,3q0,78.38.08,156.75c0,2.93-1,3.53-3.72,3.53q-108.31-.09-216.63,0c-3.27,0-3.92-1.07-3.91-4.08Q127.1,317.06,127,247.52Zm114.09,90.73v0H311c1.49,0,2.81-.52,2.88-2.14.1-1.91-1.4-2.36-3-2.46-.67,0-1.34,0-2,0l-134.13,0a31,31,0,0,0-3.61.12c-1.29.16-2.35.8-2.3,2.29s1.08,2.09,2.41,2.18,2.41.06,3.62.06Zm0-70.72h67.08c1.07,0,2.14,0,3.21,0a2.29,2.29,0,0,0,2.5-2.11c.13-1.69-1.13-2.28-2.59-2.43-.8-.08-1.61,0-2.41,0l-134.16,0a33.48,33.48,0,0,0-3.61.1c-1.3.15-2.34.79-2.29,2.29a2.31,2.31,0,0,0,2.38,2.24c1.06.1,2.14,0,3.21,0Zm-18.89-35.37v0H272c1.63,0,3.55.17,3.7-2,.16-2.49-1.85-2.52-3.66-2.55h-1.2l-97.19,0a13.69,13.69,0,0,0-2.4.1c-1.26.21-2.39.73-2.4,2.23s1,2.11,2.35,2.22,2.41.08,3.61.08Zm-9.15,70.72q20.1,0,40.2,0c1.69,0,3.92.37,4-2.14.11-2.82-2.28-2.36-4.09-2.48H174a17.08,17.08,0,0,0-3.57.34,1.92,1.92,0,0,0-1.57,2.06,2,2,0,0,0,1.63,2,19.51,19.51,0,0,0,3.59.21Q193.58,302.91,213.07,302.88Zm-8.94-141.45h31.74c1.73,0,3.93.28,3.92-2.21s-2.14-2.37-3.91-2.37q-31.55,0-63.09,0c-1.7,0-3.9-.09-3.91,2.36s2.19,2.22,3.91,2.23Zm.43,35.36q15.66,0,31.33,0c1.73,0,3.89.24,3.86-2.28s-2.19-2.24-3.91-2.33c-.27,0-.53,0-.8,0H173.58a14.45,14.45,0,0,0-2.79.21c-1.13.22-2,.84-1.95,2.16a2,2,0,0,0,2,2.12,36,36,0,0,0,3.6.13Q189.51,196.81,204.56,196.79Z"/><path class="cls-2" d="M319.06,230.39c.57-8.38,1.18-16.76,1.7-25.14a10,10,0,0,1,1.66-4.45q20.55-35.66,41-71.34c1-1.82,1.95-1.87,3.45-1,8.57,5,17.13,9.94,25.73,14.84,1.77,1,1.43,1.85.57,3.45-11.09,20.61-23.72,40.36-34.7,61-5.23,9.83-12,17.31-22,22.29-4.5,2.24-8.43,5.61-12.62,8.47-1.24.84-2.53,1.7-4.05.72s-1.09-2.3-1-3.64c.12-1.73.22-3.47.33-5.21Zm14-.38-11-5.59c-1,3.47-.86,7.06-1.26,10.59a2.81,2.81,0,0,0,0,.41c-.08,1.66.46,2.34,2.07,1.29Z"/><path class="cls-2" d="M368.18,121c1.13-.58,2.09,0,3,.53,8.21,4.76,16.37,9.61,24.64,14.27,2.24,1.26,2.65,2.3,1.37,4.67-1.38,2.56-2.7,2.21-4.72,1-7.26-4.26-14.45-8.67-21.93-12.54-3.89-2-5.06-4.09-2.48-7.78Z"/><path class="cls-2" d="M333,230l-10.23,6.7c-1.61,1-2.15.37-2.07-1.29a2.81,2.81,0,0,1,0-.41c.4-3.53.28-7.12,1.26-10.59Z"/><line class="cls-3" x1="170.82" y1="159.13" x2="239.79" y2="159.13"/><line class="cls-3" x1="170.82" y1="194.48" x2="239.79" y2="194.48"/><line class="cls-3" x1="170.82" y1="229.83" x2="274.59" y2="229.83"/><line class="cls-3" x1="170.82" y1="265.18" x2="311" y2="265.18"/><line class="cls-3" x1="170.82" y1="300.53" x2="255.9" y2="300.53"/><line class="cls-3" x1="170.82" y1="335.88" x2="311" y2="335.88"/></g></svg>