<svg xmlns="http://www.w3.org/2000/svg" viewBox="0 0 512 512"><defs><style>.cls-1,.cls-3,.cls-6{fill:#5ac4cf;}.cls-1,.cls-2,.cls-3,.cls-4,.cls-5{stroke:#5ac4cf;}.cls-1,.cls-2,.cls-4,.cls-5{stroke-miterlimit:10;}.cls-1{stroke-width:5px;}.cls-2{fill:none;}.cls-2,.cls-4,.cls-5{stroke-linecap:round;}.cls-2,.cls-3,.cls-4{stroke-width:10px;}.cls-3{stroke-linejoin:round;}.cls-4,.cls-5{fill:#fff;}.cls-5{stroke-width:6px;}</style></defs><title>Artboard 2</title><g id="Efisien"><rect class="cls-1" x="271.85" y="118.76" width="42.25" height="29.51"/><line class="cls-2" x1="291.63" y1="415.06" x2="78.82" y2="415.06"/><line class="cls-2" x1="291.63" y1="356.79" x2="102.52" y2="356.79"/><line class="cls-2" x1="291.63" y1="298.52" x2="125.14" y2="298.52"/><line class="cls-2" x1="291.63" y1="240.24" x2="78.82" y2="240.24"/><rect class="cls-3" x="242.54" y="95.96" width="101.93" height="22.8"/><circle class="cls-4" cx="293.5" cy="276.36" r="139.67"/><circle class="cls-5" cx="293.5" cy="276.36" r="77.36"/><path class="cls-6" d="M377.93,193.21c-6,8-12.2,15.73-18.41,23.49s-12.56,15.36-19,22.86c-3.24,3.74-6.18,7.78-9.27,11.68a65.69,65.69,0,0,1-10.41,10.54,105.56,105.56,0,0,1-12.34,8.61A68.2,68.2,0,0,1,294.14,277l-1.28-1.27a68.31,68.31,0,0,1,6.62-14.34,105.13,105.13,0,0,1,8.6-12.34,66.1,66.1,0,0,1,10.54-10.41c3.9-3.08,7.94-6,11.68-9.26q11.25-9.7,22.86-19c7.76-6.2,15.5-12.43,23.49-18.4Z"/></g></svg>