<svg xmlns="http://www.w3.org/2000/svg" viewBox="0 0 512 512"><defs><style>.cls-1{fill:none;}.cls-1,.cls-2,.cls-3,.cls-5,.cls-6{stroke:#5ac4cf;}.cls-1,.cls-2,.cls-3,.cls-4,.cls-5,.cls-6{stroke-miterlimit:10;}.cls-1,.cls-2{stroke-width:8px;}.cls-2,.cls-3{fill:#5ac4cf;}.cls-3{stroke-width:3px;}.cls-4,.cls-5,.cls-6{fill:#fff;}.cls-4{stroke:#fff;stroke-width:2px;}.cls-5,.cls-6{stroke-width:10px;}.cls-6{stroke-linecap:round;}</style></defs><title>Artboard 4</title><g id="Multi_Tarif" data-name="Multi Tarif"><rect class="cls-1" x="78.52" y="119.4" width="310.51" height="139.88" rx="20.91"/><path class="cls-2" d="M123,200.87s85.84-87.08,155.26,0,155.25,0,155.25,0V346.61s-85.83,87.09-155.25,0-155.26,0-155.26,0Z"/><rect class="cls-3" x="98.61" y="132.18" width="93.5" height="14.09"/><path class="cls-4" d="M226.66,237.28a73.5,73.5,0,0,1,13.55-1.14c7.56,0,12.43,1.38,15.84,4.47a13.62,13.62,0,0,1,4.3,10.39c0,7.23-4.55,12-10.31,14v.25c4.22,1.46,6.74,5.36,8,11,1.78,7.63,3.08,12.91,4.22,15H255c-.89-1.54-2.11-6.25-3.65-13.07-1.63-7.55-4.55-10.39-11-10.64h-6.66v23.71h-7.06Zm7.06,24.92H241c7.55,0,12.34-4.14,12.34-10.39,0-7.06-5.12-10.15-12.59-10.23a29.31,29.31,0,0,0-7,.65Z"/><path class="cls-4" d="M270.91,264.8c0-5-.16-9.09-.33-12.83H277l.32,6.74h.16c2.93-4.79,7.56-7.63,14-7.63,9.5,0,16.64,8,16.64,20,0,14.13-8.6,21.11-17.86,21.11-5.19,0-9.74-2.27-12.1-6.17H278v21.36h-7.06ZM278,275.28a15.42,15.42,0,0,0,.33,2.92A11,11,0,0,0,289,286.56c7.56,0,11.94-6.17,11.94-15.18,0-7.88-4.14-14.62-11.69-14.62a11.4,11.4,0,0,0-10.8,8.85,11.82,11.82,0,0,0-.49,2.93Z"/><circle class="cls-5" cx="395.4" cy="354.52" r="38.08"/><polyline class="cls-6" points="371.69 359.78 388.01 369.91 419.11 339.13"/><circle class="cls-5" cx="395.4" cy="265.13" r="38.08"/><polyline class="cls-6" points="371.69 270.39 388.01 280.52 419.11 249.74"/></g></svg>